<svg width="69" height="85" viewBox="0 0 69 85" fill="none" xmlns="http://www.w3.org/2000/svg">
<path d="M2.04 85H0.6L36.48 0.999994L37.8 0.399995L68.04 85H57.84L48.48 58.6H13.44L2.04 85ZM32.76 13.96L13.92 57.4H48.12L32.76 13.96Z" fill="white"/>
<path d="M2.04 85V88H4.0123L4.79419 86.1893L2.04 85ZM0.6 85L-2.15886 83.8216L-3.94365 88H0.6V85ZM36.48 0.999994L35.2386 -1.7311L34.1785 -1.24926L33.7211 -0.178433L36.48 0.999994ZM37.8 0.399995L40.625 -0.609776L39.5273 -3.68053L36.5586 -2.3311L37.8 0.399995ZM68.04 85V88H72.2982L70.865 83.9902L68.04 85ZM57.84 85L55.0125 86.0025L55.7207 88H57.84V85ZM48.48 58.6L51.3075 57.5975L50.5993 55.6H48.48V58.6ZM13.44 58.6V55.6H11.4677L10.6858 57.4107L13.44 58.6ZM32.76 13.96L35.5884 12.9599L33.0443 5.76481L30.0077 12.7663L32.76 13.96ZM13.92 57.4L11.1677 56.2063L9.3489 60.4H13.92V57.4ZM48.12 57.4V60.4H52.3628L50.9484 56.3999L48.12 57.4ZM2.04 82H0.6V88H2.04V82ZM3.35886 86.1784L39.2389 2.17842L33.7211 -0.178433L-2.15886 83.8216L3.35886 86.1784ZM37.7214 3.73109L39.0414 3.13109L36.5586 -2.3311L35.2386 -1.7311L37.7214 3.73109ZM34.975 1.40977L65.215 86.0098L70.865 83.9902L40.625 -0.609776L34.975 1.40977ZM68.04 82H57.84V88H68.04V82ZM60.6675 83.9975L51.3075 57.5975L45.6525 59.6025L55.0125 86.0025L60.6675 83.9975ZM48.48 55.6H13.44V61.6H48.48V55.6ZM10.6858 57.4107L-0.714187 83.8107L4.79419 86.1893L16.1942 59.7893L10.6858 57.4107ZM30.0077 12.7663L11.1677 56.2063L16.6723 58.5937L35.5123 15.1537L30.0077 12.7663ZM13.92 60.4H48.12V54.4H13.92V60.4ZM50.9484 56.3999L35.5884 12.9599L29.9316 14.9601L45.2916 58.4001L50.9484 56.3999Z" fill="black"/>
</svg>
